<svg width="32" height="32" viewBox="0 0 32 32" fill="none" xmlns="http://www.w3.org/2000/svg">
<g clip-path="url(#clip0_80_1151)">
<path fill-rule="evenodd" clip-rule="evenodd" d="M29.526 0.150009C29.6709 0.239598 29.7904 0.3647 29.8734 0.513455C29.9563 0.662211 29.9999 0.829688 30 1.00001V31C30 31.2652 29.8946 31.5196 29.7071 31.7071C29.5196 31.8947 29.2652 32 29 32H23C22.7348 32 22.4804 31.8947 22.2929 31.7071C22.1054 31.5196 22 31.2652 22 31V28H20V31C20 31.2652 19.8946 31.5196 19.7071 31.7071C19.5196 31.8947 19.2652 32 19 32H1C0.734784 32 0.48043 31.8947 0.292893 31.7071C0.105357 31.5196 0 31.2652 0 31V20C0.000159293 19.7902 0.0662962 19.5858 0.18905 19.4157C0.311804 19.2455 0.484956 19.1183 0.684 19.052L12 15.28V9.00001C12 8.81445 12.0516 8.63256 12.1491 8.47467C12.2466 8.31678 12.3861 8.18914 12.552 8.10601L28.552 0.106009C28.7046 0.0296207 28.8742 -0.00643867 29.0447 0.0012631C29.2152 0.00896487 29.3809 0.0601715 29.526 0.150009ZM12 17.388L2 20.72V30H12V17.388ZM14 30H18V27C18 26.7348 18.1054 26.4804 18.2929 26.2929C18.4804 26.1054 18.7348 26 19 26H23C23.2652 26 23.5196 26.1054 23.7071 26.2929C23.8946 26.4804 24 26.7348 24 27V30H28V2.61801L14 9.61801V30Z" fill="#FFB340"/>
<path d="M4 22H6V24H4V22ZM8 22H10V24H8V22ZM4 26H6V28H4V26ZM8 26H10V28H8V26ZM16 18H18V20H16V18ZM20 18H22V20H20V18ZM16 22H18V24H16V22ZM20 22H22V24H20V22ZM24 18H26V20H24V18ZM24 22H26V24H24V22ZM16 14H18V16H16V14ZM20 14H22V16H20V14ZM24 14H26V16H24V14ZM16 10H18V12H16V10ZM20 10H22V12H20V10ZM24 10H26V12H24V10ZM24 6H26V8H24V6Z" fill="#FFB340"/>
</g>
<defs>
<clipPath id="clip0_80_1151">
<rect width="32" height="32" fill="white"/>
</clipPath>
</defs>
</svg>
