<svg width="32" height="32" viewBox="0 0 32 32" fill="none" xmlns="http://www.w3.org/2000/svg">
<path d="M27.231 23.618L20 13.675V4H22V2H10V4H12V13.675L4.769 23.618C4.33283 24.2174 4.07101 24.9259 4.0125 25.6649C3.954 26.4039 4.10109 27.1447 4.4375 27.8053C4.77391 28.4659 5.28653 29.0206 5.91863 29.4079C6.55073 29.7953 7.27766 30.0002 8.019 30H23.98C24.7213 30.0002 25.4483 29.7953 26.0804 29.4079C26.7125 29.0206 27.2251 28.4659 27.5615 27.8053C27.8979 27.1447 28.045 26.4039 27.9865 25.6649C27.928 24.9259 27.6662 24.2174 27.23 23.618H27.231ZM14 14.325V4H18V14.325L20.673 18H11.327L14 14.325ZM23.981 28H8.02C7.64779 27.9996 7.28293 27.8964 6.96568 27.7017C6.64844 27.507 6.39115 27.2285 6.22222 26.8968C6.05328 26.5652 5.97927 26.1933 6.00835 25.8222C6.03742 25.4511 6.16846 25.0953 6.387 24.794L9.873 20H22.127L25.614 24.794C25.8325 25.0953 25.9636 25.4511 25.9926 25.8222C26.0217 26.1933 25.9477 26.5652 25.7788 26.8968C25.6098 27.2285 25.3526 27.507 25.0353 27.7017C24.7181 27.8964 24.3532 27.9996 23.981 28Z" fill="#FFB340"/>
</svg>
