<svg width="32" height="32" viewBox="0 0 32 32" fill="none" xmlns="http://www.w3.org/2000/svg">
<path d="M16 22.6667L17.3333 20V13.144C19.628 12.548 21.3333 10.4774 21.3333 8.00002C21.3333 5.05869 18.9413 2.66669 16 2.66669C13.0587 2.66669 10.6667 5.05869 10.6667 8.00002C10.6667 10.4774 12.372 12.548 14.6667 13.144V20L16 22.6667ZM13.3333 8.00002C13.3333 6.52935 14.5293 5.33335 16 5.33335C17.4707 5.33335 18.6667 6.52935 18.6667 8.00002C18.6667 9.47069 17.4707 10.6667 16 10.6667C14.5293 10.6667 13.3333 9.47069 13.3333 8.00002Z" fill="#FFB340"/>
<path d="M21.6893 14.084L20.9787 16.6546C24.4333 17.6093 26.6667 19.4453 26.6667 21.3333C26.6667 23.856 22.2867 26.6666 16 26.6666C9.71332 26.6666 5.33332 23.856 5.33332 21.3333C5.33332 19.4453 7.56666 17.6093 11.0227 16.6533L10.312 14.0826C5.59599 15.3866 2.66666 18.164 2.66666 21.3333C2.66666 25.8186 8.52399 29.3333 16 29.3333C23.476 29.3333 29.3333 25.8186 29.3333 21.3333C29.3333 18.164 26.404 15.3866 21.6893 14.084Z" fill="#FFB340"/>
</svg>
