<svg width="16" height="16" viewBox="0 0 16 16" fill="none" xmlns="http://www.w3.org/2000/svg">
<path d="M12.3125 8.29375L9.05 7.09375C9.01667 7.08232 8.9864 7.06343 8.96148 7.03852C8.93657 7.01361 8.91768 6.98333 8.90625 6.95L7.70625 3.6875C7.6542 3.54186 7.5584 3.41588 7.43197 3.3268C7.30554 3.23772 7.15466 3.18991 7 3.18991C6.84534 3.18991 6.69447 3.23772 6.56803 3.3268C6.4416 3.41588 6.3458 3.54186 6.29375 3.6875L5.09375 6.95C5.08232 6.98333 5.06343 7.01361 5.03852 7.03852C5.01361 7.06343 4.98333 7.08232 4.95 7.09375L1.6875 8.29375C1.54186 8.3458 1.41588 8.4416 1.3268 8.56803C1.23772 8.69446 1.18991 8.84534 1.18991 9C1.18991 9.15466 1.23772 9.30554 1.3268 9.43197C1.41588 9.5584 1.54186 9.6542 1.6875 9.70625L4.95 10.9062C4.98333 10.9177 5.01361 10.9366 5.03852 10.9615C5.06343 10.9864 5.08232 11.0167 5.09375 11.05L6.29375 14.3125C6.3458 14.4581 6.4416 14.5841 6.56803 14.6732C6.69447 14.7623 6.84534 14.8101 7 14.8101C7.15466 14.8101 7.30554 14.7623 7.43197 14.6732C7.5584 14.5841 7.6542 14.4581 7.70625 14.3125L8.90625 11.05C8.91768 11.0167 8.93657 10.9864 8.96148 10.9615C8.9864 10.9366 9.01667 10.9177 9.05 10.9062L12.3125 9.70625C12.4581 9.6542 12.5841 9.5584 12.6732 9.43197C12.7623 9.30554 12.8101 9.15466 12.8101 9C12.8101 8.84534 12.7623 8.69446 12.6732 8.56803C12.5841 8.4416 12.4581 8.3458 12.3125 8.29375ZM12.1375 9.2375L8.88125 10.4375C8.77942 10.4747 8.68694 10.5336 8.61028 10.6103C8.53363 10.6869 8.47466 10.7794 8.4375 10.8813L7.2375 14.1375C7.22106 14.1875 7.18925 14.2311 7.1466 14.2619C7.10396 14.2928 7.05265 14.3094 7 14.3094C6.94735 14.3094 6.89605 14.2928 6.8534 14.2619C6.81075 14.2311 6.77894 14.1875 6.7625 14.1375L5.5625 10.8813C5.52534 10.7794 5.46637 10.6869 5.38972 10.6103C5.31307 10.5336 5.22059 10.4747 5.11875 10.4375L1.8625 9.2375C1.81248 9.22106 1.76893 9.18925 1.73806 9.1466C1.70719 9.10395 1.69056 9.05265 1.69056 9C1.69056 8.94735 1.70719 8.89605 1.73806 8.8534C1.76893 8.81075 1.81248 8.77894 1.8625 8.7625L5.11875 7.5625C5.22059 7.52534 5.31307 7.46637 5.38972 7.38972C5.46637 7.31307 5.52534 7.22059 5.5625 7.11875L6.7625 3.8625C6.77894 3.81248 6.81075 3.76893 6.8534 3.73806C6.89605 3.70718 6.94735 3.69056 7 3.69056C7.05265 3.69056 7.10396 3.70718 7.1466 3.73806C7.18925 3.76893 7.22106 3.81248 7.2375 3.8625L8.4375 7.11875C8.47466 7.22059 8.53363 7.31307 8.61028 7.38972C8.68694 7.46637 8.77942 7.52534 8.88125 7.5625L12.1375 8.7625C12.1875 8.77894 12.2311 8.81075 12.2619 8.8534C12.2928 8.89605 12.3094 8.94735 12.3094 9C12.3094 9.05265 12.2928 9.10395 12.2619 9.1466C12.2311 9.18925 12.1875 9.22106 12.1375 9.2375ZM9.25 2.5C9.25 2.4337 9.27634 2.37011 9.32323 2.32322C9.37011 2.27634 9.4337 2.25 9.5 2.25H10.75V1C10.75 0.933696 10.7763 0.870107 10.8232 0.823223C10.8701 0.776339 10.9337 0.75 11 0.75C11.0663 0.75 11.1299 0.776339 11.1768 0.823223C11.2237 0.870107 11.25 0.933696 11.25 1V2.25H12.5C12.5663 2.25 12.6299 2.27634 12.6768 2.32322C12.7237 2.37011 12.75 2.4337 12.75 2.5C12.75 2.5663 12.7237 2.62989 12.6768 2.67678C12.6299 2.72366 12.5663 2.75 12.5 2.75H11.25V4C11.25 4.0663 11.2237 4.12989 11.1768 4.17678C11.1299 4.22366 11.0663 4.25 11 4.25C10.9337 4.25 10.8701 4.22366 10.8232 4.17678C10.7763 4.12989 10.75 4.0663 10.75 4V2.75H9.5C9.4337 2.75 9.37011 2.72366 9.32323 2.67678C9.27634 2.62989 9.25 2.5663 9.25 2.5ZM15.25 5.5C15.25 5.5663 15.2237 5.62989 15.1768 5.67678C15.1299 5.72366 15.0663 5.75 15 5.75H14.25V6.5C14.25 6.5663 14.2237 6.62989 14.1768 6.67678C14.1299 6.72366 14.0663 6.75 14 6.75C13.9337 6.75 13.8701 6.72366 13.8232 6.67678C13.7763 6.62989 13.75 6.5663 13.75 6.5V5.75H13C12.9337 5.75 12.8701 5.72366 12.8232 5.67678C12.7763 5.62989 12.75 5.5663 12.75 5.5C12.75 5.4337 12.7763 5.37011 12.8232 5.32322C12.8701 5.27634 12.9337 5.25 13 5.25H13.75V4.5C13.75 4.4337 13.7763 4.37011 13.8232 4.32322C13.8701 4.27634 13.9337 4.25 14 4.25C14.0663 4.25 14.1299 4.27634 14.1768 4.32322C14.2237 4.37011 14.25 4.4337 14.25 4.5V5.25H15C15.0663 5.25 15.1299 5.27634 15.1768 5.32322C15.2237 5.37011 15.25 5.4337 15.25 5.5Z" fill="white"/>
</svg>
