<svg width="1440" height="272" viewBox="0 0 1440 272" fill="none" xmlns="http://www.w3.org/2000/svg">
<rect y="1" width="1440" height="270" fill="#EDF5FF"/>
<rect y="1" width="1440" height="270" stroke="white"/>
<path d="M0 211.937C0 211.937 92.2561 77.3331 327.509 121.198C562.762 165.062 257 1 257 1" stroke="white"/>
<path d="M1440 271C1440 271 1387.09 98.7064 1252.18 154.853C1117.26 211 1297.15 1 1297.15 1" stroke="white"/>
<path d="M0 226.369C273.702 203.654 210.383 270.157 360 270.156" stroke="white"/>
<path d="M1201.5 1C789 52.6797 1188.5 180.508 748 267.414" stroke="white"/>
<path d="M428.579 270.367C328.08 148.445 870.579 118.914 615.079 1.422" stroke="white"/>
</svg>
