<svg width="82" height="82" viewBox="0 0 82 82" fill="none" xmlns="http://www.w3.org/2000/svg">
<path d="M42.5069 33.1468C51.2659 36.2382 60.7119 36.0665 69.385 32.7175C69.4709 29.1967 68.5263 25.6759 66.8947 22.4986L66.036 20.7812C65.7784 20.867 65.4349 21.0388 65.2631 21.2105C57.3628 24.9889 48.4321 25.5042 40.1025 22.4986C34.2631 20.4377 27.9086 20.9529 22.4127 23.7008L20.6953 24.5596C20.7811 24.8172 20.9529 25.1607 21.1246 25.3324C22.1551 27.5651 23.0138 29.9695 23.6149 32.4598C29.626 30.7424 36.3241 30.9141 42.5069 33.1468Z" fill="#FFB340"/>
<path d="M21.1247 58.9944L23.0138 57.964C26.8418 56.05 31.0648 55.1235 35.2548 55.2456C37.8324 55.3208 40.3974 55.7928 42.8504 56.6759C43.6495 56.9594 44.4511 57.2197 45.2548 57.457L45.2548 66.6102C41.93 65.9921 38.5642 65.9038 35.2548 66.3298C31.8218 66.7718 28.4495 67.7673 25.2465 69.2991C25.0748 69.4709 24.7313 69.6426 24.4737 69.7285L23.615 68.011C22.1551 65.1772 21.2964 62.0858 21.1247 58.9944Z" fill="#FFB340"/>
<path d="M22.155 51.0942C29.4541 48.0886 37.612 47.831 45.083 50.493C51.9528 52.8975 59.2519 53.3268 66.1217 51.7811C66.0359 47.9169 66.5511 44.1385 67.9251 40.3601C58.9084 43.0221 49.2048 42.7645 40.1882 39.5872C35.0359 37.698 29.3683 37.698 24.2159 39.4155C24.3018 43.108 23.6148 46.8864 22.3267 50.5789C22.3267 50.5789 22.2408 50.8365 22.155 51.0942Z" fill="#FFB340"/>
</svg>
